<svg width="277" height="272" viewBox="0 0 277 272" fill="none" xmlns="http://www.w3.org/2000/svg">
<path d="M267.18 133.59C267.18 59.81 207.37 0 133.59 0C59.81 0 0 59.81 0 133.59C0 195.82 42.55 248.12 100.15 262.96V74.55C100.15 65.81 110.72 61.43 116.9 67.61C116.9 67.61 141.68 92.31 165.59 116.19C188.01 138.58 209.67 160.24 209.41 160.13C177.65 145.78 146.74 177.78 123.38 163.95C122.23 163.27 121.09 162.47 119.98 161.56V266.5C124.45 266.95 128.99 267.18 133.59 267.18C160.1 267.18 184.8 259.46 205.58 246.14L231.22 271.78L276.21 226.79L249.49 200.07C260.74 180.49 267.18 157.8 267.18 133.59Z" fill="#00C7B7"/>
</svg>
