<svg viewBox="0 0 20 24" fill="currentColor" xmlns="http://www.w3.org/2000/svg">
<path d="M19.6334 9.6668C19.6334 9.6668 18.4607 10.7748 16.5007 12.0964C15.9661 8.8636 14.483 4.8728 11.5461 0C11.5461 0 10.5857 5.2268 7.38725 10.174C5.99148 7.9348 5.39263 6.1768 5.39263 6.1768C-4.67122 16.6084 3.67109 24 8.91033 24C15.635 24 21.5526 20.6556 19.6334 9.6668ZM9.25495 23.3328C7.78956 23.3328 4.51879 22.2704 2.93763 17.3796C2.93763 17.3796 3.50571 17.682 4.42956 18.032C4.46725 16.3412 5.12071 14.1776 6.79264 11.448C6.79264 11.448 7.21187 12.62 8.18879 14.1128C10.4276 10.8144 11.0999 7.3284 11.0999 7.3284C13.1561 10.5784 14.1942 13.2396 14.5688 15.3952C15.9403 14.5136 16.7615 13.7744 16.7615 13.7744C16.668 15.9436 16.2653 17.6436 15.6826 18.9724C16.6 18.816 17.1796 18.6496 17.1796 18.6496C14.5384 22.5288 11.873 23.3328 9.25495 23.3328Z"/>
<path d="M6.11415 16.7416C6.11415 16.7416 7.19299 18.272 8.01338 17.9024C8.01338 17.9024 9.57299 15.382 11.8111 13.9808C11.8111 13.9808 11.3515 17.8232 11.8799 18.5024C12.5807 19.4056 14.4795 17.5008 14.4795 17.5008C14.4795 19.7712 12.083 22.632 9.93876 22.632C7.80992 22.632 4.79184 20.1696 6.11415 16.7416ZM16.8615 6.44716C17.6695 5.23076 18.2188 3.98476 18.2188 3.98476C19.5738 6.29476 18.7742 7.69956 18.1788 8.15836C17.3799 8.77516 15.9288 7.85316 16.8615 6.44716ZM2.11414 6.05236C1.32337 4.64236 1.23453 2.88516 1.23453 2.88516C-0.697399 5.90396 0.0572168 7.54796 0.69991 8.04556C1.56222 8.71356 3.02683 7.68156 2.11414 6.05236ZM6.60876 2.91636C6.70722 1.96876 6.3253 0.985962 6.3253 0.985962C8.15761 2.21156 8.13569 3.27916 7.89684 3.69476C7.57492 4.25236 6.49453 4.01116 6.60876 2.91636Z"/>
</svg>
