<svg fill="currentColor" viewBox="0 0 20 20" xmlns="http://www.w3.org/2000/svg">
<path fill-rule="evenodd" clip-rule="evenodd" d="M9.18462 3.1424C8.22879 2.59403 7.14764 2.27734 6.03501 2.21984C4.92238 2.16233 3.81191 2.36574 2.8 2.81241C2.65319 2.87712 2.52881 2.98075 2.44157 3.11102C2.35433 3.24129 2.30787 3.39277 2.30769 3.54752V11.6986C3.68568 11.168 5.17331 10.9502 6.65392 11.0624C8.13453 11.1746 9.56787 11.6138 10.8415 12.3454L11.3708 12.6503C12.2628 13.1625 13.2753 13.451 14.3147 13.4891C15.354 13.5272 16.3866 13.3137 17.3169 12.8683C17.4299 12.8145 17.525 12.7315 17.5913 12.6287C17.6576 12.5258 17.6926 12.4073 17.6923 12.2864V4.01747C16.3406 4.49402 14.8945 4.67418 13.4604 4.54466C12.0264 4.41514 10.641 3.97925 9.40615 3.26909L9.18462 3.1424ZM18.3492 14.8453C17.0717 15.4567 15.6538 15.7496 14.2267 15.6971C12.7996 15.6446 11.4094 15.2483 10.1846 14.5448L9.65385 14.2399C8.66216 13.6702 7.54344 13.334 6.38965 13.259C5.23586 13.1839 4.07994 13.3722 3.01692 13.8082L2.30769 14.0999V18.8951C2.30769 19.1881 2.18613 19.4692 1.96974 19.6764C1.75335 19.8836 1.45987 20 1.15385 20C0.847827 20 0.554342 19.8836 0.337954 19.6764C0.121566 19.4692 0 19.1881 0 18.8951V3.54752C0 2.36898 0.715385 1.29945 1.83077 0.805936C3.18446 0.208025 4.67017 -0.0642525 6.15877 0.0127697C7.64736 0.089792 9.09378 0.513783 10.3723 1.24789L10.5938 1.37458C11.6177 1.96321 12.7763 2.30316 13.9688 2.36478C15.1612 2.42641 16.3513 2.20785 17.4354 1.72815L18.3631 1.3186C18.5389 1.241 18.7322 1.20699 18.9253 1.21971C19.1185 1.23243 19.3051 1.29147 19.4682 1.3914C19.6312 1.49132 19.7654 1.62891 19.8583 1.79151C19.9512 1.95411 20 2.13648 20 2.32184V12.2864C20 13.3692 19.36 14.3607 18.3492 14.8453Z"/>
</svg>
