<svg viewBox="0 0 20 20" fill="currentColor" xmlns="http://www.w3.org/2000/svg">
<path d="M15.502 0.134903C15.6535 0.222837 15.7792 0.349023 15.8666 0.500829C15.954 0.652635 16 0.824736 16 0.999903V4.9999C16.5627 4.99992 17.119 5.11866 17.6327 5.34835C18.1464 5.57805 18.6058 5.91354 18.981 6.3329C19.6372 7.06629 20 8.01582 20 8.9999C20 10.0239 19.614 10.9599 18.981 11.6669C18.6058 12.0863 18.1464 12.4218 17.6327 12.6515C17.119 12.8811 16.5627 12.9999 16 12.9999V16.9999C15.9999 17.175 15.9539 17.3471 15.8665 17.4988C15.7791 17.6505 15.6533 17.7766 15.5019 17.8645C15.3504 17.9524 15.1785 17.999 15.0034 17.9996C14.8283 18.0002 14.6561 17.9548 14.504 17.8679L8 14.1519V18.9999C8 19.2651 7.89464 19.5195 7.70711 19.707C7.51957 19.8945 7.26522 19.9999 7 19.9999H3C2.73478 19.9999 2.48043 19.8945 2.29289 19.707C2.10536 19.5195 2 19.2651 2 18.9999V13.9999C1.46957 13.9999 0.960859 13.7892 0.585786 13.4141C0.210714 13.039 0 12.5303 0 11.9999V5.9999C0 5.46947 0.210714 4.96076 0.585786 4.58569C0.960859 4.21062 1.46957 3.9999 2 3.9999H7.734L14.504 0.131903C14.656 0.0449615 14.8283 -0.00052197 15.0034 4.51929e-06C15.1785 0.000531008 15.3505 0.047049 15.502 0.134903ZM8 11.9999C8.174 12 8.34497 12.0455 8.496 12.1319L14 15.2769V2.7229L8.496 5.8679C8.34497 5.95431 8.174 5.9998 8 5.9999H2V11.9999H8ZM4 13.9999V17.9999H6V13.9999H4ZM16 10.9999C16.592 10.9999 17.123 10.7439 17.491 10.3329C17.808 9.9789 18 9.5129 18 8.9999C18 8.4869 17.808 8.0209 17.491 7.6669C17.3034 7.45707 17.0736 7.28919 16.8167 7.17425C16.5598 7.05932 16.2815 6.9999 16 6.9999V10.9999Z"/>
</svg>
