<svg viewBox="0 0 108 40"  fill="currentColor"  xmlns="http://www.w3.org/2000/svg">
<path d="M36.4139 21.2827C36.4139 11.2895 28.3337 3.18842 18.366 3.18842C8.3984 3.18842 0.318115 11.2895 0.318115 21.2827C0.318115 29.7115 6.06659 36.7953 13.8483 38.8054V13.2859C13.8483 12.1021 15.2763 11.5089 16.1112 12.3459C16.1112 12.3459 19.459 15.6915 22.6892 18.9259C25.7181 21.9586 28.6444 24.8923 28.6093 24.8774C24.3185 22.9338 20.1426 27.2681 16.9867 25.3948C16.8313 25.3027 16.6773 25.1944 16.5273 25.0711V39.2849C17.1312 39.3458 17.7446 39.377 18.366 39.377C21.9475 39.377 25.2845 38.3313 28.0918 36.5272L31.5558 40L37.6339 33.9063L34.024 30.2872C35.5439 27.6351 36.4139 24.5618 36.4139 21.2827Z"/>
<path d="M64.9659 5.49379H49.7578C49.1607 5.49379 48.677 5.97868 48.677 6.57736V32.0074C48.677 32.8566 47.9907 33.5447 47.1436 33.5447H46.9518C46.1047 33.5447 45.4184 32.8566 45.4184 32.0074V6.57736C45.4184 5.97868 44.9348 5.49379 44.3376 5.49379H38.9026V38.6118H55.74C56.3372 38.6118 56.8208 38.1269 56.8208 37.5282V22.5871C56.8208 21.7379 57.5071 21.0498 58.3542 21.0498H58.546C59.3931 21.0498 60.0794 21.7379 60.0794 22.5871V37.5282C60.0794 38.1269 60.5631 38.6118 61.1602 38.6118H71.4818V32.0792H68.2245V25.3191H71.4818V18.7865H68.2245V12.025H71.4818V5.49243H64.9659V5.49379ZM58.4501 18.7499C57.1802 18.7499 56.1507 17.7178 56.1507 16.4446C56.1507 15.1714 57.1802 14.1393 58.4501 14.1393C59.72 14.1393 60.7495 15.1714 60.7495 16.4446C60.7495 17.7178 59.72 18.7499 58.4501 18.7499Z"/>
<path d="M47.0477 4.61059C48.3176 4.61059 49.3471 3.57849 49.3471 2.3053C49.3471 1.0321 48.3176 0 47.0477 0C45.7778 0 44.7483 1.0321 44.7483 2.3053C44.7483 3.57849 45.7778 4.61059 47.0477 4.61059Z"/>
<path d="M104.059 5.49379H85.594C84.9969 5.49379 84.5132 5.97868 84.5132 6.57736V32.0074C84.5132 32.8566 83.8269 33.5447 82.9798 33.5447H82.788C81.9409 33.5447 81.2546 32.8566 81.2546 32.0074V6.57736C81.2546 5.97868 80.771 5.49379 80.1738 5.49379H74.7388V38.6118H91.5762C92.1733 38.6118 92.657 38.1269 92.657 37.5282V22.5871C92.657 21.7379 93.3433 21.0498 94.1904 21.0498H94.3822C95.2293 21.0498 95.9156 21.7379 95.9156 22.5871V37.5282C95.9156 38.1269 96.3992 38.6118 96.9964 38.6118H107.318V32.0792H104.061V25.3191H107.318V18.7865H104.061V12.025H107.318V5.49243H104.061L104.059 5.49379ZM94.2863 18.7499C93.0164 18.7499 91.9869 17.7178 91.9869 16.4446C91.9869 15.1714 93.0164 14.1393 94.2863 14.1393C95.5562 14.1393 96.5857 15.1714 96.5857 16.4446C96.5857 17.7178 95.5562 18.7499 94.2863 18.7499Z"/>
<path d="M82.8839 4.61059C84.1538 4.61059 85.1832 3.57849 85.1832 2.3053C85.1832 1.0321 84.1538 0 82.8839 0C81.6139 0 80.5845 1.0321 80.5845 2.3053C80.5845 3.57849 81.6139 4.61059 82.8839 4.61059Z"/>
</svg>
