<svg viewBox="0 0 16 16" fill="currentColor" xmlns="http://www.w3.org/2000/svg">
<path d="M8 0C12.4184 0 16 3.5816 16 8C16 12.4184 12.4184 16 8 16C3.5816 16 0 12.4184 0 8C0 3.5816 3.5816 0 8 0ZM8 1.6C6.30261 1.6 4.67475 2.27428 3.47452 3.47452C2.27428 4.67475 1.6 6.30261 1.6 8C1.6 9.69739 2.27428 11.3253 3.47452 12.5255C4.67475 13.7257 6.30261 14.4 8 14.4C9.69739 14.4 11.3253 13.7257 12.5255 12.5255C13.7257 11.3253 14.4 9.69739 14.4 8C14.4 6.30261 13.7257 4.67475 12.5255 3.47452C11.3253 2.27428 9.69739 1.6 8 1.6ZM8 3.2C8.19595 3.20003 8.38507 3.27196 8.5315 3.40217C8.67793 3.53238 8.77147 3.7118 8.7944 3.9064L8.8 4V7.6688L10.9656 9.8344C11.1091 9.97837 11.1924 10.1715 11.1986 10.3747C11.2048 10.5779 11.1334 10.7758 10.999 10.9282C10.8646 11.0807 10.6772 11.1762 10.4748 11.1955C10.2725 11.2148 10.0704 11.1563 9.9096 11.032L9.8344 10.9656L7.4344 8.5656C7.31006 8.44116 7.23021 8.2792 7.2072 8.1048L7.2 8V4C7.2 3.78783 7.28429 3.58434 7.43431 3.43431C7.58434 3.28429 7.78783 3.2 8 3.2Z"/>
</svg>
